<svg id="visual" viewBox="0 0 900 600" width="900" height="600" xmlns="http://www.w3.org/2000/svg" xmlns:xlink="http://www.w3.org/1999/xlink" version="1.1"><path d="M0 383L150 412L300 373L450 373L600 381L750 369L900 407L900 601L750 601L600 601L450 601L300 601L150 601L0 601Z" fill="#ded8d3"></path><path d="M0 431L150 432L300 440L450 406L600 445L750 428L900 429L900 601L750 601L600 601L450 601L300 601L150 601L0 601Z" fill="#d2cdc9"></path><path d="M0 443L150 460L300 450L450 458L600 456L750 466L900 479L900 601L750 601L600 601L450 601L300 601L150 601L0 601Z" fill="#c6c3c0"></path><path d="M0 488L150 495L300 510L450 516L600 496L750 488L900 515L900 601L750 601L600 601L450 601L300 601L150 601L0 601Z" fill="#bab8b7"></path><path d="M0 530L150 551L300 530L450 539L600 539L750 529L900 527L900 601L750 601L600 601L450 601L300 601L150 601L0 601Z" fill="#aeaeae"></path></svg>